<svg width="300" height="70" viewBox="0 0 300 70" fill="none" xmlns="http://www.w3.org/2000/svg">
<rect width="300" height="70" fill="white"/>
<path fill-rule="evenodd" clip-rule="evenodd" d="M45.8434 0C26.0399 0 10 16.0587 10 35.8853C10 51.7645 20.2602 65.1767 34.5079 69.9314C36.3001 70.2454 36.9721 69.1689 36.9721 68.2269C36.9721 67.3746 36.9273 64.5487 36.9273 61.5433C27.9217 63.203 25.5919 59.3453 24.875 57.3267C24.4718 56.295 22.7244 53.1102 21.2011 52.2579C19.9465 51.5851 18.1544 49.9254 21.1562 49.8805C23.9789 49.8357 25.9951 52.4822 26.6672 53.5588C29.8931 58.9864 35.0456 57.4613 37.1066 56.5193C37.4202 54.1868 38.3611 52.6168 39.3916 51.7197C31.4164 50.8225 23.0828 47.7274 23.0828 34.0013C23.0828 30.0988 24.4718 26.8691 26.7568 24.3571C26.3983 23.46 25.1438 19.7818 27.1152 14.8475C27.1152 14.8475 30.1171 13.9055 36.9721 18.5258C39.8396 17.7184 42.8863 17.3146 45.933 17.3146C48.9797 17.3146 52.0264 17.7184 54.8938 18.5258C61.7489 13.8607 64.7508 14.8475 64.7508 14.8475C66.7221 19.7818 65.4676 23.46 65.1092 24.3571C67.3942 26.8691 68.7831 30.0539 68.7831 34.0013C68.7831 47.7723 60.4047 50.8225 52.4296 51.7197C53.7289 52.8411 54.849 54.9942 54.849 58.3584C54.849 63.1581 54.8042 67.0158 54.8042 68.2269C54.8042 69.1689 55.4763 70.2903 57.2684 69.9314C71.4266 65.1767 81.6867 51.7197 81.6867 35.8853C81.6867 16.0587 65.6468 0 45.8434 0Z" fill="#1B1F23"/>
<g filter="url(#filter0_d)">
<path d="M35.4326 29.6627L22.3351 16.5658C21.581 15.8114 20.3577 15.8114 19.6029 16.5658L16.8835 19.286L20.3333 22.7357C21.1351 22.4648 22.0544 22.6466 22.6933 23.2858C23.3361 23.929 23.5163 24.8561 23.2385 25.6609L26.5639 28.9859C27.3686 28.7084 28.2964 28.888 28.9389 29.5315C29.8367 30.4292 29.8367 31.884 28.9389 32.7824C28.0405 33.6805 26.5857 33.6805 25.687 32.7824C25.0118 32.1066 24.8447 31.1142 25.1871 30.2823L22.0857 27.1812V35.3419C22.3045 35.4503 22.5111 35.5946 22.6933 35.7768C23.5911 36.6745 23.5911 38.1293 22.6933 39.028C21.7955 39.9255 21.1236 42.3178 20.2264 41.4203C19.3287 40.5212 20.7203 44.2351 21.6181 43.3377C21.8401 43.116 22.9829 38.502 23.2571 38.3897L30.5554 33.5654C30.2812 33.4531 29.6338 28.2531 29.4112 28.0298C28.7311 27.3501 26.0009 25.5559 26.3496 24.7208L19.0866 17.0823L15.5469 20.6219L6.56585 29.602C5.81138 30.3571 5.81138 31.5804 6.56585 32.3348L19.664 45.432C20.4181 46.1865 21.6411 46.1865 22.3962 45.432L35.4326 32.3955C36.1871 31.6411 36.1871 30.4172 35.4326 29.6627Z" fill="white"/>
<path d="M35.4326 29.6627L22.3351 16.5658C21.581 15.8114 20.3577 15.8114 19.6029 16.5658L16.8835 19.286L20.3333 22.7357C21.1351 22.4648 22.0544 22.6466 22.6933 23.2858C23.3361 23.929 23.5163 24.8561 23.2385 25.6609L26.5639 28.9859C27.3686 28.7084 28.2964 28.888 28.9389 29.5315C29.8367 30.4292 29.8367 31.884 28.9389 32.7824C28.0405 33.6805 26.5857 33.6805 25.687 32.7824C25.0118 32.1066 24.8447 31.1142 25.1872 30.2823L22.0857 27.1812V35.3419C22.3045 35.4503 22.5111 35.5946 22.6933 35.7767C23.5911 36.6745 23.5911 38.1293 22.6933 39.028C21.7955 39.9255 20.3398 39.9255 19.4427 39.028C18.5449 38.1289 18.5449 36.6742 19.4427 35.7767C19.6646 35.5551 19.9216 35.3873 20.1958 35.275V27.0382C19.9216 26.9259 19.6653 26.7598 19.4427 26.5365C18.7626 25.8567 18.5991 24.8584 18.9477 24.0233L15.5469 20.6219L6.56585 29.602C5.81138 30.3571 5.81138 31.5804 6.56585 32.3348L19.664 45.432C20.4181 46.1864 21.6411 46.1864 22.3962 45.432L35.4326 32.3955C36.1871 31.6411 36.1871 30.4172 35.4326 29.6627Z" fill="#F05133"/>
</g>
<path d="M109.2 28.192C107.232 28.192 105.728 27.456 104.688 25.984C103.664 24.512 103.152 22.368 103.152 19.552C103.152 16.72 103.664 14.568 104.688 13.096C105.728 11.624 107.232 10.888 109.2 10.888C111.168 10.888 112.664 11.624 113.688 13.096C114.728 14.552 115.248 16.696 115.248 19.528C115.248 22.36 114.728 24.512 113.688 25.984C112.664 27.456 111.168 28.192 109.2 28.192ZM109.2 26.2C110.432 26.2 111.336 25.664 111.912 24.592C112.488 23.52 112.776 21.832 112.776 19.528C112.776 17.224 112.488 15.544 111.912 14.488C111.336 13.416 110.432 12.88 109.2 12.88C107.968 12.88 107.064 13.416 106.488 14.488C105.912 15.544 105.624 17.224 105.624 19.528C105.624 21.816 105.912 23.504 106.488 24.592C107.064 25.664 107.968 26.2 109.2 26.2ZM125.911 28C125.527 28 125.223 27.896 124.999 27.688C124.791 27.464 124.687 27.168 124.687 26.8V12.28C124.687 11.912 124.791 11.624 124.999 11.416C125.223 11.192 125.527 11.08 125.911 11.08H134.743C135.111 11.08 135.391 11.168 135.583 11.344C135.791 11.52 135.895 11.768 135.895 12.088C135.895 12.408 135.791 12.656 135.583 12.832C135.391 12.992 135.111 13.072 134.743 13.072H127.111V18.4H134.263C134.631 18.4 134.911 18.488 135.103 18.664C135.311 18.84 135.415 19.088 135.415 19.408C135.415 19.728 135.311 19.976 135.103 20.152C134.911 20.328 134.631 20.416 134.263 20.416H127.111V26.008H134.743C135.511 26.008 135.895 26.336 135.895 26.992C135.895 27.312 135.791 27.56 135.583 27.736C135.391 27.912 135.111 28 134.743 28H125.911ZM148.302 26.176C148.542 26.416 148.662 26.696 148.662 27.016C148.662 27.32 148.55 27.584 148.326 27.808C148.118 28.016 147.862 28.12 147.558 28.12C147.254 28.12 146.974 27.984 146.718 27.712L143.046 23.584L139.398 27.712C139.142 27.984 138.862 28.12 138.558 28.12C138.254 28.12 137.99 28.008 137.766 27.784C137.558 27.56 137.454 27.296 137.454 26.992C137.454 26.688 137.566 26.416 137.79 26.176L141.582 22L137.982 17.992C137.742 17.72 137.622 17.448 137.622 17.176C137.622 16.872 137.734 16.616 137.958 16.408C138.182 16.184 138.438 16.072 138.726 16.072C139.03 16.072 139.31 16.208 139.566 16.48L143.046 20.416L146.526 16.48C146.782 16.208 147.07 16.072 147.39 16.072C147.678 16.072 147.934 16.184 148.158 16.408C148.382 16.616 148.494 16.872 148.494 17.176C148.494 17.48 148.374 17.752 148.134 17.992L144.534 22L148.302 26.176ZM157.335 16C158.343 16 159.239 16.256 160.023 16.768C160.823 17.28 161.439 18 161.871 18.928C162.319 19.856 162.543 20.928 162.543 22.144C162.543 23.344 162.327 24.4 161.895 25.312C161.463 26.224 160.847 26.928 160.047 27.424C159.263 27.92 158.359 28.168 157.335 28.168C156.455 28.168 155.679 27.984 155.007 27.616C154.335 27.232 153.823 26.688 153.471 25.984V31.336C153.471 31.672 153.359 31.936 153.135 32.128C152.927 32.336 152.647 32.44 152.295 32.44C151.927 32.44 151.623 32.336 151.383 32.128C151.159 31.92 151.047 31.64 151.047 31.288V17.224C151.047 16.872 151.159 16.592 151.383 16.384C151.607 16.16 151.903 16.048 152.271 16.048C152.623 16.048 152.911 16.16 153.135 16.384C153.359 16.592 153.471 16.872 153.471 17.224V18.208C153.823 17.504 154.335 16.96 155.007 16.576C155.679 16.192 156.455 16 157.335 16ZM156.759 26.248C157.815 26.248 158.631 25.896 159.207 25.192C159.783 24.472 160.071 23.456 160.071 22.144C160.071 20.816 159.775 19.784 159.183 19.048C158.607 18.312 157.799 17.944 156.759 17.944C155.703 17.944 154.887 18.304 154.311 19.024C153.751 19.744 153.471 20.768 153.471 22.096C153.471 23.424 153.751 24.448 154.311 25.168C154.887 25.888 155.703 26.248 156.759 26.248ZM174.395 25.048C174.619 25.048 174.803 25.136 174.947 25.312C175.091 25.488 175.163 25.712 175.163 25.984C175.163 26.448 174.875 26.84 174.299 27.16C173.739 27.48 173.123 27.728 172.451 27.904C171.795 28.08 171.163 28.168 170.555 28.168C168.699 28.168 167.235 27.632 166.163 26.56C165.091 25.472 164.555 23.992 164.555 22.12C164.555 20.92 164.787 19.856 165.251 18.928C165.731 18 166.395 17.28 167.243 16.768C168.107 16.256 169.083 16 170.171 16C171.739 16 172.979 16.504 173.891 17.512C174.803 18.52 175.259 19.88 175.259 21.592C175.259 22.232 174.971 22.552 174.395 22.552H166.979C167.139 25.032 168.331 26.272 170.555 26.272C171.147 26.272 171.659 26.192 172.091 26.032C172.523 25.872 172.979 25.664 173.459 25.408C173.507 25.376 173.635 25.312 173.843 25.216C174.067 25.104 174.251 25.048 174.395 25.048ZM170.219 17.776C169.291 17.776 168.547 18.072 167.987 18.664C167.427 19.256 167.091 20.088 166.979 21.16H173.171C173.123 20.072 172.843 19.24 172.331 18.664C171.835 18.072 171.131 17.776 170.219 17.776ZM184.074 16.048C184.842 16 185.226 16.328 185.226 17.032C185.226 17.384 185.138 17.648 184.962 17.824C184.786 18 184.482 18.104 184.05 18.136L183.33 18.208C182.322 18.304 181.57 18.656 181.074 19.264C180.594 19.872 180.354 20.608 180.354 21.472V26.968C180.354 27.352 180.242 27.64 180.018 27.832C179.794 28.024 179.506 28.12 179.154 28.12C178.802 28.12 178.506 28.024 178.266 27.832C178.042 27.64 177.93 27.352 177.93 26.968V17.2C177.93 16.832 178.042 16.552 178.266 16.36C178.506 16.152 178.802 16.048 179.154 16.048C179.474 16.048 179.738 16.152 179.946 16.36C180.17 16.552 180.282 16.824 180.282 17.176V18.328C180.602 17.624 181.066 17.088 181.674 16.72C182.282 16.352 182.97 16.136 183.738 16.072L184.074 16.048ZM187.943 28.12C187.591 28.12 187.295 28.024 187.055 27.832C186.831 27.64 186.719 27.352 186.719 26.968V17.224C186.719 16.84 186.831 16.552 187.055 16.36C187.295 16.152 187.591 16.048 187.943 16.048C188.295 16.048 188.583 16.152 188.807 16.36C189.031 16.552 189.143 16.84 189.143 17.224V26.968C189.143 27.352 189.031 27.64 188.807 27.832C188.583 28.024 188.295 28.12 187.943 28.12ZM187.943 13.696C187.479 13.696 187.111 13.568 186.839 13.312C186.567 13.056 186.431 12.72 186.431 12.304C186.431 11.888 186.567 11.56 186.839 11.32C187.111 11.064 187.479 10.936 187.943 10.936C188.391 10.936 188.751 11.064 189.023 11.32C189.311 11.56 189.455 11.888 189.455 12.304C189.455 12.72 189.319 13.056 189.047 13.312C188.775 13.568 188.407 13.696 187.943 13.696ZM201.7 25.048C201.924 25.048 202.108 25.136 202.252 25.312C202.396 25.488 202.468 25.712 202.468 25.984C202.468 26.448 202.18 26.84 201.604 27.16C201.044 27.48 200.428 27.728 199.756 27.904C199.1 28.08 198.468 28.168 197.86 28.168C196.004 28.168 194.54 27.632 193.468 26.56C192.396 25.472 191.86 23.992 191.86 22.12C191.86 20.92 192.092 19.856 192.556 18.928C193.036 18 193.7 17.28 194.548 16.768C195.412 16.256 196.388 16 197.476 16C199.044 16 200.284 16.504 201.196 17.512C202.108 18.52 202.564 19.88 202.564 21.592C202.564 22.232 202.276 22.552 201.7 22.552H194.284C194.444 25.032 195.636 26.272 197.86 26.272C198.452 26.272 198.964 26.192 199.396 26.032C199.828 25.872 200.284 25.664 200.764 25.408C200.812 25.376 200.94 25.312 201.148 25.216C201.372 25.104 201.556 25.048 201.7 25.048ZM197.524 17.776C196.596 17.776 195.852 18.072 195.292 18.664C194.732 19.256 194.396 20.088 194.284 21.16H200.476C200.428 20.072 200.148 19.24 199.636 18.664C199.14 18.072 198.436 17.776 197.524 17.776ZM211.547 16C214.347 16 215.747 17.576 215.747 20.728V26.968C215.747 27.336 215.635 27.624 215.411 27.832C215.203 28.024 214.907 28.12 214.523 28.12C214.155 28.12 213.859 28.016 213.635 27.808C213.427 27.6 213.323 27.32 213.323 26.968V20.848C213.323 19.856 213.123 19.128 212.723 18.664C212.339 18.2 211.731 17.968 210.899 17.968C209.923 17.968 209.139 18.272 208.547 18.88C207.955 19.488 207.659 20.304 207.659 21.328V26.968C207.659 27.32 207.547 27.6 207.323 27.808C207.115 28.016 206.827 28.12 206.459 28.12C206.091 28.12 205.795 28.016 205.571 27.808C205.347 27.6 205.235 27.32 205.235 26.968V17.2C205.235 16.864 205.347 16.592 205.571 16.384C205.811 16.16 206.107 16.048 206.459 16.048C206.811 16.048 207.091 16.152 207.299 16.36C207.507 16.568 207.611 16.84 207.611 17.176V18.16C207.995 17.456 208.531 16.92 209.219 16.552C209.907 16.184 210.683 16 211.547 16ZM224.079 28.168C222.943 28.168 221.943 27.92 221.079 27.424C220.231 26.928 219.567 26.224 219.087 25.312C218.623 24.4 218.391 23.344 218.391 22.144C218.391 20.928 218.631 19.856 219.111 18.928C219.607 18 220.295 17.28 221.175 16.768C222.055 16.256 223.063 16 224.199 16C224.807 16 225.415 16.088 226.023 16.264C226.647 16.44 227.199 16.68 227.679 16.984C228.191 17.336 228.447 17.744 228.447 18.208C228.447 18.48 228.375 18.712 228.231 18.904C228.087 19.08 227.903 19.168 227.679 19.168C227.535 19.168 227.391 19.136 227.247 19.072C227.103 18.992 226.919 18.88 226.695 18.736C226.295 18.48 225.919 18.288 225.567 18.16C225.231 18.016 224.823 17.944 224.343 17.944C223.255 17.944 222.407 18.312 221.799 19.048C221.207 19.784 220.911 20.808 220.911 22.12C220.911 23.432 221.207 24.448 221.799 25.168C222.391 25.872 223.231 26.224 224.319 26.224C224.799 26.224 225.223 26.152 225.591 26.008C225.959 25.864 226.335 25.672 226.719 25.432C226.895 25.32 227.071 25.224 227.247 25.144C227.423 25.064 227.583 25.024 227.727 25.024C227.951 25.024 228.135 25.12 228.279 25.312C228.423 25.488 228.495 25.712 228.495 25.984C228.495 26.208 228.431 26.416 228.303 26.608C228.191 26.784 227.991 26.968 227.703 27.16C227.223 27.48 226.663 27.728 226.023 27.904C225.383 28.08 224.735 28.168 224.079 28.168ZM239.832 25.048C240.056 25.048 240.24 25.136 240.384 25.312C240.528 25.488 240.6 25.712 240.6 25.984C240.6 26.448 240.312 26.84 239.736 27.16C239.176 27.48 238.56 27.728 237.888 27.904C237.232 28.08 236.6 28.168 235.992 28.168C234.136 28.168 232.672 27.632 231.6 26.56C230.528 25.472 229.992 23.992 229.992 22.12C229.992 20.92 230.224 19.856 230.688 18.928C231.168 18 231.832 17.28 232.68 16.768C233.544 16.256 234.52 16 235.608 16C237.176 16 238.416 16.504 239.328 17.512C240.24 18.52 240.696 19.88 240.696 21.592C240.696 22.232 240.408 22.552 239.832 22.552H232.416C232.576 25.032 233.768 26.272 235.992 26.272C236.584 26.272 237.096 26.192 237.528 26.032C237.96 25.872 238.416 25.664 238.896 25.408C238.944 25.376 239.072 25.312 239.28 25.216C239.504 25.104 239.688 25.048 239.832 25.048ZM235.656 17.776C234.728 17.776 233.984 18.072 233.424 18.664C232.864 19.256 232.528 20.088 232.416 21.16H238.608C238.56 20.072 238.28 19.24 237.768 18.664C237.272 18.072 236.568 17.776 235.656 17.776ZM109.416 57.272C109.768 57.304 110.016 57.4 110.16 57.56C110.32 57.704 110.4 57.912 110.4 58.184C110.4 58.504 110.272 58.752 110.016 58.928C109.776 59.088 109.416 59.152 108.936 59.12L108.288 59.072C106.992 58.976 106.024 58.584 105.384 57.896C104.744 57.192 104.424 56.16 104.424 54.8V49.16H102.984C102.28 49.16 101.928 48.848 101.928 48.224C101.928 47.936 102.016 47.712 102.192 47.552C102.384 47.376 102.648 47.288 102.984 47.288H104.424V44.816C104.424 44.448 104.528 44.16 104.736 43.952C104.96 43.744 105.256 43.64 105.624 43.64C105.992 43.64 106.288 43.744 106.512 43.952C106.736 44.16 106.848 44.448 106.848 44.816V47.288H109.224C109.56 47.288 109.816 47.376 109.992 47.552C110.184 47.712 110.28 47.936 110.28 48.224C110.28 48.528 110.184 48.76 109.992 48.92C109.816 49.08 109.56 49.16 109.224 49.16H106.848V54.968C106.848 55.72 107 56.272 107.304 56.624C107.624 56.976 108.104 57.176 108.744 57.224L109.416 57.272ZM117.229 59.168C116.077 59.168 115.061 58.92 114.181 58.424C113.317 57.928 112.645 57.224 112.165 56.312C111.701 55.384 111.469 54.312 111.469 53.096C111.469 51.864 111.701 50.792 112.165 49.88C112.645 48.952 113.317 48.24 114.181 47.744C115.061 47.248 116.077 47 117.229 47C118.381 47 119.389 47.248 120.253 47.744C121.133 48.24 121.805 48.952 122.269 49.88C122.749 50.792 122.989 51.864 122.989 53.096C122.989 54.312 122.749 55.384 122.269 56.312C121.805 57.224 121.133 57.928 120.253 58.424C119.389 58.92 118.381 59.168 117.229 59.168ZM117.229 57.248C118.301 57.248 119.117 56.896 119.677 56.192C120.253 55.488 120.541 54.456 120.541 53.096C120.541 51.752 120.253 50.728 119.677 50.024C119.101 49.304 118.285 48.944 117.229 48.944C116.173 48.944 115.357 49.304 114.781 50.024C114.205 50.728 113.917 51.752 113.917 53.096C113.917 54.456 114.197 55.488 114.757 56.192C115.333 56.896 116.157 57.248 117.229 57.248ZM133.528 59.12C133.16 59.12 132.864 59.008 132.64 58.784C132.416 58.56 132.304 58.256 132.304 57.872V43.28C132.304 42.912 132.408 42.624 132.616 42.416C132.84 42.192 133.144 42.08 133.528 42.08H139.312C141.104 42.08 142.496 42.52 143.488 43.4C144.48 44.28 144.976 45.528 144.976 47.144C144.976 48.744 144.48 49.992 143.488 50.888C142.496 51.784 141.104 52.232 139.312 52.232H134.776V57.872C134.776 58.256 134.664 58.56 134.44 58.784C134.232 59.008 133.928 59.12 133.528 59.12ZM139.048 50.24C141.416 50.24 142.6 49.208 142.6 47.144C142.6 45.096 141.416 44.072 139.048 44.072H134.776V50.24H139.048ZM153.582 47.048C154.35 47 154.734 47.328 154.734 48.032C154.734 48.384 154.646 48.648 154.47 48.824C154.294 49 153.99 49.104 153.558 49.136L152.838 49.208C151.83 49.304 151.078 49.656 150.582 50.264C150.102 50.872 149.862 51.608 149.862 52.472V57.968C149.862 58.352 149.75 58.64 149.526 58.832C149.302 59.024 149.014 59.12 148.662 59.12C148.31 59.12 148.014 59.024 147.774 58.832C147.55 58.64 147.438 58.352 147.438 57.968V48.2C147.438 47.832 147.55 47.552 147.774 47.36C148.014 47.152 148.31 47.048 148.662 47.048C148.982 47.048 149.246 47.152 149.454 47.36C149.678 47.552 149.79 47.824 149.79 48.176V49.328C150.11 48.624 150.574 48.088 151.182 47.72C151.79 47.352 152.478 47.136 153.246 47.072L153.582 47.048ZM161.081 59.168C159.929 59.168 158.913 58.92 158.033 58.424C157.169 57.928 156.497 57.224 156.017 56.312C155.553 55.384 155.321 54.312 155.321 53.096C155.321 51.864 155.553 50.792 156.017 49.88C156.497 48.952 157.169 48.24 158.033 47.744C158.913 47.248 159.929 47 161.081 47C162.233 47 163.241 47.248 164.105 47.744C164.985 48.24 165.657 48.952 166.121 49.88C166.601 50.792 166.841 51.864 166.841 53.096C166.841 54.312 166.601 55.384 166.121 56.312C165.657 57.224 164.985 57.928 164.105 58.424C163.241 58.92 162.233 59.168 161.081 59.168ZM161.081 57.248C162.153 57.248 162.969 56.896 163.529 56.192C164.105 55.488 164.393 54.456 164.393 53.096C164.393 51.752 164.105 50.728 163.529 50.024C162.953 49.304 162.137 48.944 161.081 48.944C160.025 48.944 159.209 49.304 158.633 50.024C158.057 50.728 157.769 51.752 157.769 53.096C157.769 54.456 158.049 55.488 158.609 56.192C159.185 56.896 160.009 57.248 161.081 57.248ZM175.013 43.928C174.213 43.992 173.621 44.248 173.237 44.696C172.853 45.128 172.661 45.768 172.661 46.616V47.288H175.037C175.373 47.288 175.629 47.376 175.805 47.552C175.997 47.712 176.093 47.936 176.093 48.224C176.093 48.512 175.997 48.744 175.805 48.92C175.629 49.08 175.373 49.16 175.037 49.16H172.661V57.944C172.661 58.328 172.541 58.624 172.301 58.832C172.077 59.024 171.789 59.12 171.437 59.12C171.085 59.12 170.797 59.024 170.573 58.832C170.349 58.624 170.237 58.328 170.237 57.944V49.16H168.797C168.461 49.16 168.197 49.08 168.005 48.92C167.829 48.744 167.74 48.512 167.74 48.224C167.74 47.936 167.829 47.712 168.005 47.552C168.197 47.376 168.461 47.288 168.797 47.288H170.237V46.976C170.237 45.504 170.613 44.352 171.365 43.52C172.117 42.672 173.181 42.2 174.557 42.104L175.181 42.056C175.693 42.024 176.061 42.08 176.285 42.224C176.525 42.368 176.645 42.6 176.645 42.92C176.645 43.48 176.309 43.8 175.637 43.88L175.013 43.928ZM186.746 56.048C186.97 56.048 187.154 56.136 187.298 56.312C187.442 56.488 187.514 56.712 187.514 56.984C187.514 57.448 187.226 57.84 186.65 58.16C186.09 58.48 185.474 58.728 184.802 58.904C184.146 59.08 183.514 59.168 182.906 59.168C181.05 59.168 179.586 58.632 178.514 57.56C177.442 56.472 176.906 54.992 176.906 53.12C176.906 51.92 177.138 50.856 177.602 49.928C178.082 49 178.746 48.28 179.594 47.768C180.458 47.256 181.434 47 182.522 47C184.09 47 185.33 47.504 186.242 48.512C187.154 49.52 187.61 50.88 187.61 52.592C187.61 53.232 187.322 53.552 186.746 53.552H179.33C179.49 56.032 180.682 57.272 182.906 57.272C183.498 57.272 184.01 57.192 184.442 57.032C184.874 56.872 185.33 56.664 185.81 56.408C185.858 56.376 185.986 56.312 186.194 56.216C186.418 56.104 186.602 56.048 186.746 56.048ZM182.57 48.776C181.642 48.776 180.898 49.072 180.338 49.664C179.778 50.256 179.442 51.088 179.33 52.16H185.522C185.474 51.072 185.194 50.24 184.682 49.664C184.186 49.072 183.482 48.776 182.57 48.776ZM194.362 59.168C192.73 59.168 191.394 58.832 190.354 58.16C190.066 57.984 189.858 57.8 189.73 57.608C189.618 57.416 189.562 57.2 189.562 56.96C189.562 56.704 189.634 56.488 189.778 56.312C189.922 56.136 190.106 56.048 190.33 56.048C190.538 56.048 190.866 56.176 191.314 56.432C191.794 56.688 192.258 56.896 192.706 57.056C193.17 57.216 193.746 57.296 194.434 57.296C195.202 57.296 195.802 57.16 196.234 56.888C196.666 56.616 196.882 56.232 196.882 55.736C196.882 55.416 196.794 55.16 196.618 54.968C196.458 54.776 196.17 54.608 195.754 54.464C195.338 54.304 194.722 54.136 193.906 53.96C192.498 53.656 191.482 53.248 190.858 52.736C190.25 52.208 189.946 51.496 189.946 50.6C189.946 49.912 190.146 49.296 190.546 48.752C190.946 48.192 191.498 47.76 192.202 47.456C192.906 47.152 193.706 47 194.602 47C195.242 47 195.866 47.088 196.474 47.264C197.082 47.424 197.618 47.664 198.082 47.984C198.61 48.336 198.874 48.744 198.874 49.208C198.874 49.464 198.794 49.68 198.634 49.856C198.49 50.032 198.314 50.12 198.106 50.12C197.962 50.12 197.818 50.088 197.674 50.024C197.53 49.96 197.338 49.856 197.098 49.712C196.666 49.456 196.258 49.256 195.874 49.112C195.506 48.968 195.042 48.896 194.482 48.896C193.81 48.896 193.266 49.04 192.85 49.328C192.45 49.616 192.25 50.008 192.25 50.504C192.25 50.952 192.434 51.304 192.802 51.56C193.186 51.8 193.898 52.032 194.938 52.256C196.01 52.48 196.85 52.736 197.458 53.024C198.066 53.312 198.498 53.672 198.754 54.104C199.026 54.52 199.162 55.056 199.162 55.712C199.162 56.752 198.722 57.592 197.842 58.232C196.978 58.856 195.818 59.168 194.362 59.168ZM205.94 59.168C204.308 59.168 202.972 58.832 201.932 58.16C201.644 57.984 201.436 57.8 201.308 57.608C201.196 57.416 201.14 57.2 201.14 56.96C201.14 56.704 201.212 56.488 201.356 56.312C201.5 56.136 201.684 56.048 201.908 56.048C202.116 56.048 202.444 56.176 202.892 56.432C203.372 56.688 203.836 56.896 204.284 57.056C204.748 57.216 205.324 57.296 206.012 57.296C206.78 57.296 207.38 57.16 207.812 56.888C208.244 56.616 208.46 56.232 208.46 55.736C208.46 55.416 208.372 55.16 208.196 54.968C208.036 54.776 207.748 54.608 207.332 54.464C206.916 54.304 206.3 54.136 205.484 53.96C204.076 53.656 203.06 53.248 202.436 52.736C201.828 52.208 201.524 51.496 201.524 50.6C201.524 49.912 201.724 49.296 202.124 48.752C202.524 48.192 203.076 47.76 203.78 47.456C204.484 47.152 205.284 47 206.18 47C206.82 47 207.444 47.088 208.052 47.264C208.66 47.424 209.196 47.664 209.66 47.984C210.188 48.336 210.452 48.744 210.452 49.208C210.452 49.464 210.372 49.68 210.212 49.856C210.068 50.032 209.892 50.12 209.684 50.12C209.54 50.12 209.396 50.088 209.252 50.024C209.108 49.96 208.916 49.856 208.676 49.712C208.244 49.456 207.836 49.256 207.452 49.112C207.084 48.968 206.62 48.896 206.06 48.896C205.388 48.896 204.844 49.04 204.428 49.328C204.028 49.616 203.828 50.008 203.828 50.504C203.828 50.952 204.012 51.304 204.38 51.56C204.764 51.8 205.476 52.032 206.516 52.256C207.588 52.48 208.428 52.736 209.036 53.024C209.644 53.312 210.076 53.672 210.332 54.104C210.604 54.52 210.74 55.056 210.74 55.712C210.74 56.752 210.3 57.592 209.42 58.232C208.556 58.856 207.396 59.168 205.94 59.168ZM214.662 59.12C214.31 59.12 214.014 59.024 213.774 58.832C213.55 58.64 213.438 58.352 213.438 57.968V48.224C213.438 47.84 213.55 47.552 213.774 47.36C214.014 47.152 214.31 47.048 214.662 47.048C215.014 47.048 215.302 47.152 215.526 47.36C215.75 47.552 215.862 47.84 215.862 48.224V57.968C215.862 58.352 215.75 58.64 215.526 58.832C215.302 59.024 215.014 59.12 214.662 59.12ZM214.662 44.696C214.198 44.696 213.83 44.568 213.558 44.312C213.286 44.056 213.15 43.72 213.15 43.304C213.15 42.888 213.286 42.56 213.558 42.32C213.83 42.064 214.198 41.936 214.662 41.936C215.11 41.936 215.47 42.064 215.742 42.32C216.03 42.56 216.174 42.888 216.174 43.304C216.174 43.72 216.038 44.056 215.766 44.312C215.494 44.568 215.126 44.696 214.662 44.696ZM224.338 59.168C223.186 59.168 222.17 58.92 221.29 58.424C220.426 57.928 219.754 57.224 219.274 56.312C218.81 55.384 218.578 54.312 218.578 53.096C218.578 51.864 218.81 50.792 219.274 49.88C219.754 48.952 220.426 48.24 221.29 47.744C222.17 47.248 223.186 47 224.338 47C225.49 47 226.498 47.248 227.362 47.744C228.242 48.24 228.914 48.952 229.378 49.88C229.858 50.792 230.098 51.864 230.098 53.096C230.098 54.312 229.858 55.384 229.378 56.312C228.914 57.224 228.242 57.928 227.362 58.424C226.498 58.92 225.49 59.168 224.338 59.168ZM224.338 57.248C225.41 57.248 226.226 56.896 226.786 56.192C227.362 55.488 227.65 54.456 227.65 53.096C227.65 51.752 227.362 50.728 226.786 50.024C226.21 49.304 225.394 48.944 224.338 48.944C223.282 48.944 222.466 49.304 221.89 50.024C221.314 50.728 221.026 51.752 221.026 53.096C221.026 54.456 221.306 55.488 221.866 56.192C222.442 56.896 223.266 57.248 224.338 57.248ZM239.109 47C241.909 47 243.309 48.576 243.309 51.728V57.968C243.309 58.336 243.197 58.624 242.973 58.832C242.765 59.024 242.469 59.12 242.085 59.12C241.717 59.12 241.421 59.016 241.197 58.808C240.989 58.6 240.885 58.32 240.885 57.968V51.848C240.885 50.856 240.685 50.128 240.285 49.664C239.901 49.2 239.293 48.968 238.461 48.968C237.485 48.968 236.701 49.272 236.109 49.88C235.517 50.488 235.221 51.304 235.221 52.328V57.968C235.221 58.32 235.109 58.6 234.885 58.808C234.677 59.016 234.389 59.12 234.021 59.12C233.653 59.12 233.357 59.016 233.133 58.808C232.909 58.6 232.797 58.32 232.797 57.968V48.2C232.797 47.864 232.909 47.592 233.133 47.384C233.373 47.16 233.669 47.048 234.021 47.048C234.373 47.048 234.653 47.152 234.861 47.36C235.069 47.568 235.173 47.84 235.173 48.176V49.16C235.557 48.456 236.093 47.92 236.781 47.552C237.469 47.184 238.245 47 239.109 47ZM251.545 47C253.097 47 254.249 47.392 255.001 48.176C255.769 48.96 256.153 50.152 256.153 51.752V57.968C256.153 58.336 256.049 58.624 255.841 58.832C255.633 59.024 255.345 59.12 254.977 59.12C254.625 59.12 254.345 59.016 254.137 58.808C253.929 58.6 253.825 58.32 253.825 57.968V57.08C253.521 57.752 253.065 58.272 252.457 58.64C251.865 58.992 251.169 59.168 250.369 59.168C249.601 59.168 248.897 59.016 248.257 58.712C247.633 58.392 247.137 57.96 246.769 57.416C246.401 56.872 246.217 56.256 246.217 55.568C246.201 54.704 246.417 54.032 246.865 53.552C247.313 53.056 248.041 52.704 249.049 52.496C250.057 52.272 251.457 52.16 253.249 52.16H253.801V51.464C253.801 50.568 253.617 49.92 253.249 49.52C252.881 49.12 252.289 48.92 251.473 48.92C250.913 48.92 250.385 48.992 249.889 49.136C249.393 49.28 248.849 49.488 248.257 49.76C247.825 50 247.521 50.12 247.345 50.12C247.105 50.12 246.905 50.032 246.745 49.856C246.601 49.68 246.529 49.456 246.529 49.184C246.529 48.944 246.593 48.736 246.721 48.56C246.865 48.368 247.089 48.184 247.393 48.008C247.953 47.704 248.609 47.464 249.361 47.288C250.113 47.096 250.841 47 251.545 47ZM250.801 57.368C251.681 57.368 252.401 57.072 252.961 56.48C253.521 55.872 253.801 55.096 253.801 54.152V53.528H253.369C252.121 53.528 251.161 53.584 250.489 53.696C249.817 53.808 249.337 54 249.049 54.272C248.761 54.528 248.617 54.904 248.617 55.4C248.617 55.976 248.825 56.448 249.241 56.816C249.657 57.184 250.177 57.368 250.801 57.368ZM260.693 59.12C260.341 59.12 260.045 59.024 259.805 58.832C259.581 58.64 259.469 58.352 259.469 57.968V43.136C259.469 42.752 259.581 42.464 259.805 42.272C260.045 42.064 260.341 41.96 260.693 41.96C261.045 41.96 261.333 42.064 261.557 42.272C261.781 42.464 261.893 42.752 261.893 43.136V57.968C261.893 58.352 261.781 58.64 261.557 58.832C261.333 59.024 261.045 59.12 260.693 59.12Z" fill="black"/>
<defs>
<filter id="filter0_d" x="0" y="10" width="41.9985" height="41.9978" filterUnits="userSpaceOnUse" color-interpolation-filters="sRGB">
<feFlood flood-opacity="0" result="BackgroundImageFix"/>
<feColorMatrix in="SourceAlpha" type="matrix" values="0 0 0 0 0 0 0 0 0 0 0 0 0 0 0 0 0 0 127 0"/>
<feOffset/>
<feGaussianBlur stdDeviation="3"/>
<feColorMatrix type="matrix" values="0 0 0 0 0.941176 0 0 0 0 0.317647 0 0 0 0 0.2 0 0 0 1 0"/>
<feBlend mode="normal" in2="BackgroundImageFix" result="effect1_dropShadow"/>
<feBlend mode="normal" in="SourceGraphic" in2="effect1_dropShadow" result="shape"/>
</filter>
</defs>
</svg>
