<svg width="300" height="70" viewBox="0 0 300 70" fill="none" xmlns="http://www.w3.org/2000/svg">
<rect width="300" height="70" fill="white"/>
<path d="M70 0H0V70H70V0Z" fill="#F7DF1E"/>
<path d="M47.0223 54.6876C48.4323 56.9898 50.2667 58.682 53.5112 58.682C56.2367 58.682 57.9778 57.3198 57.9778 55.4376C57.9778 53.182 56.1889 52.3832 53.1889 51.0709L51.5445 50.3654C46.7978 48.3432 43.6445 45.8098 43.6445 40.4543C43.6445 35.5209 47.4034 31.7654 53.2778 31.7654C57.46 31.7654 60.4667 33.2209 62.6334 37.032L57.5112 40.3209C56.3834 38.2987 55.1667 37.502 53.2778 37.502C51.3512 37.502 50.13 38.7243 50.13 40.3209C50.13 42.2943 51.3523 43.0932 54.1745 44.3154L55.8189 45.0198C61.4078 47.4165 64.5634 49.8598 64.5634 55.3532C64.5634 61.2754 59.9112 64.5198 53.6634 64.5198C47.5545 64.5198 43.6078 61.6087 41.6767 57.7932L47.0223 54.6876ZM23.7856 55.2576C24.8189 57.0909 25.7589 58.6409 28.0189 58.6409C30.18 58.6409 31.5434 57.7954 31.5434 54.5076V32.1409H38.1212V54.5965C38.1212 61.4076 34.1278 64.5076 28.2989 64.5076C23.0323 64.5076 19.9823 61.782 18.4312 58.4993L23.7856 55.2576Z" fill="black"/>
<path d="M98.922 34.562C99.9793 34.8567 100.794 35.3853 101.366 36.148C101.955 36.9107 102.25 37.864 102.25 39.008C102.25 40.5853 101.704 41.816 100.612 42.7C99.5373 43.5667 98.0293 44 96.088 44H89.458C89.042 44 88.7127 43.8873 88.47 43.662C88.2447 43.4193 88.132 43.0987 88.132 42.7V26.97C88.132 26.5713 88.2447 26.2593 88.47 26.034C88.7127 25.7913 89.042 25.67 89.458 25.67H95.802C97.6913 25.67 99.1647 26.0947 100.222 26.944C101.297 27.776 101.834 28.946 101.834 30.454C101.834 31.4247 101.574 32.2653 101.054 32.976C100.551 33.6867 99.8407 34.2153 98.922 34.562ZM90.758 33.6H95.386C97.9513 33.6 99.234 32.6293 99.234 30.688C99.234 29.7173 98.9133 28.998 98.272 28.53C97.648 28.062 96.686 27.828 95.386 27.828H90.758V33.6ZM95.802 41.842C97.1367 41.842 98.116 41.5993 98.74 41.114C99.364 40.6287 99.676 39.8747 99.676 38.852C99.676 37.812 99.3553 37.0407 98.714 36.538C98.09 36.018 97.1193 35.758 95.802 35.758H90.758V41.842H95.802ZM115.373 40.802C115.616 40.802 115.815 40.8973 115.971 41.088C116.127 41.2787 116.205 41.5213 116.205 41.816C116.205 42.3187 115.893 42.7433 115.269 43.09C114.662 43.4367 113.995 43.7053 113.267 43.896C112.556 44.0867 111.872 44.182 111.213 44.182C109.202 44.182 107.616 43.6013 106.455 42.44C105.294 41.2613 104.713 39.658 104.713 37.63C104.713 36.33 104.964 35.1773 105.467 34.172C105.987 33.1667 106.706 32.3867 107.625 31.832C108.561 31.2773 109.618 31 110.797 31C112.496 31 113.839 31.546 114.827 32.638C115.815 33.73 116.309 35.2033 116.309 37.058C116.309 37.7513 115.997 38.098 115.373 38.098H107.339C107.512 40.7847 108.804 42.128 111.213 42.128C111.854 42.128 112.409 42.0413 112.877 41.868C113.345 41.6947 113.839 41.4693 114.359 41.192C114.411 41.1573 114.55 41.088 114.775 40.984C115.018 40.8627 115.217 40.802 115.373 40.802ZM110.849 32.924C109.844 32.924 109.038 33.2447 108.431 33.886C107.824 34.5273 107.46 35.4287 107.339 36.59H114.047C113.995 35.4113 113.692 34.51 113.137 33.886C112.6 33.2447 111.837 32.924 110.849 32.924ZM129.707 31.052C130.105 31.052 130.417 31.1733 130.643 31.416C130.885 31.6413 131.007 31.9447 131.007 32.326V42.986C131.007 44.9273 130.487 46.392 129.447 47.38C128.424 48.368 126.907 48.862 124.897 48.862C123.025 48.862 121.465 48.5067 120.217 47.796C119.575 47.432 119.255 46.9987 119.255 46.496C119.255 46.2013 119.333 45.9587 119.489 45.768C119.662 45.5773 119.87 45.482 120.113 45.482C120.338 45.482 120.693 45.612 121.179 45.872C121.803 46.1667 122.383 46.392 122.921 46.548C123.458 46.7213 124.099 46.808 124.845 46.808C127.237 46.808 128.433 45.6033 128.433 43.194V41.192C128.069 41.9547 127.514 42.5527 126.769 42.986C126.023 43.402 125.157 43.61 124.169 43.61C123.059 43.61 122.071 43.35 121.205 42.83C120.338 42.31 119.662 41.5733 119.177 40.62C118.709 39.6667 118.475 38.566 118.475 37.318C118.475 36.07 118.717 34.9693 119.203 34.016C119.688 33.0627 120.355 32.326 121.205 31.806C122.071 31.2687 123.059 31 124.169 31C125.139 31 125.989 31.208 126.717 31.624C127.462 32.04 128.025 32.6293 128.407 33.392V32.3C128.407 31.9187 128.519 31.6153 128.745 31.39C128.987 31.1647 129.308 31.052 129.707 31.052ZM124.793 41.53C125.919 41.53 126.803 41.1573 127.445 40.412C128.086 39.6667 128.407 38.6353 128.407 37.318C128.407 36.018 128.086 34.9953 127.445 34.25C126.821 33.4873 125.937 33.106 124.793 33.106C123.649 33.106 122.747 33.4787 122.089 34.224C121.447 34.9693 121.127 36.0007 121.127 37.318C121.127 38.6353 121.456 39.6667 122.115 40.412C122.773 41.1573 123.666 41.53 124.793 41.53ZM135.992 44.13C135.61 44.13 135.29 44.026 135.03 43.818C134.787 43.61 134.666 43.298 134.666 42.882V32.326C134.666 31.91 134.787 31.598 135.03 31.39C135.29 31.1647 135.61 31.052 135.992 31.052C136.373 31.052 136.685 31.1647 136.928 31.39C137.17 31.598 137.292 31.91 137.292 32.326V42.882C137.292 43.298 137.17 43.61 136.928 43.818C136.685 44.026 136.373 44.13 135.992 44.13ZM135.992 28.504C135.489 28.504 135.09 28.3653 134.796 28.088C134.501 27.8107 134.354 27.4467 134.354 26.996C134.354 26.5453 134.501 26.19 134.796 25.93C135.09 25.6527 135.489 25.514 135.992 25.514C136.477 25.514 136.867 25.6527 137.162 25.93C137.474 26.19 137.63 26.5453 137.63 26.996C137.63 27.4467 137.482 27.8107 137.188 28.088C136.893 28.3653 136.494 28.504 135.992 28.504ZM147.801 31C150.834 31 152.351 32.7073 152.351 36.122V42.882C152.351 43.2807 152.229 43.5927 151.987 43.818C151.761 44.026 151.441 44.13 151.025 44.13C150.626 44.13 150.305 44.0173 150.063 43.792C149.837 43.5667 149.725 43.2633 149.725 42.882V36.252C149.725 35.1773 149.508 34.3887 149.075 33.886C148.659 33.3833 148 33.132 147.099 33.132C146.041 33.132 145.192 33.4613 144.551 34.12C143.909 34.7787 143.589 35.6627 143.589 36.772V42.882C143.589 43.2633 143.467 43.5667 143.225 43.792C142.999 44.0173 142.687 44.13 142.289 44.13C141.89 44.13 141.569 44.0173 141.327 43.792C141.084 43.5667 140.963 43.2633 140.963 42.882V32.3C140.963 31.936 141.084 31.6413 141.327 31.416C141.587 31.1733 141.907 31.052 142.289 31.052C142.67 31.052 142.973 31.1647 143.199 31.39C143.424 31.6153 143.537 31.91 143.537 32.274V33.34C143.953 32.5773 144.533 31.9967 145.279 31.598C146.024 31.1993 146.865 31 147.801 31ZM162.781 31C165.814 31 167.331 32.7073 167.331 36.122V42.882C167.331 43.2807 167.21 43.5927 166.967 43.818C166.742 44.026 166.421 44.13 166.005 44.13C165.606 44.13 165.286 44.0173 165.043 43.792C164.818 43.5667 164.705 43.2633 164.705 42.882V36.252C164.705 35.1773 164.488 34.3887 164.055 33.886C163.639 33.3833 162.98 33.132 162.079 33.132C161.022 33.132 160.172 33.4613 159.531 34.12C158.89 34.7787 158.569 35.6627 158.569 36.772V42.882C158.569 43.2633 158.448 43.5667 158.205 43.792C157.98 44.0173 157.668 44.13 157.269 44.13C156.87 44.13 156.55 44.0173 156.307 43.792C156.064 43.5667 155.943 43.2633 155.943 42.882V32.3C155.943 31.936 156.064 31.6413 156.307 31.416C156.567 31.1733 156.888 31.052 157.269 31.052C157.65 31.052 157.954 31.1647 158.179 31.39C158.404 31.6153 158.517 31.91 158.517 32.274V33.34C158.933 32.5773 159.514 31.9967 160.259 31.598C161.004 31.1993 161.845 31 162.781 31ZM180.856 40.802C181.098 40.802 181.298 40.8973 181.454 41.088C181.61 41.2787 181.688 41.5213 181.688 41.816C181.688 42.3187 181.376 42.7433 180.752 43.09C180.145 43.4367 179.478 43.7053 178.75 43.896C178.039 44.0867 177.354 44.182 176.696 44.182C174.685 44.182 173.099 43.6013 171.938 42.44C170.776 41.2613 170.196 39.658 170.196 37.63C170.196 36.33 170.447 35.1773 170.95 34.172C171.47 33.1667 172.189 32.3867 173.108 31.832C174.044 31.2773 175.101 31 176.28 31C177.978 31 179.322 31.546 180.31 32.638C181.298 33.73 181.792 35.2033 181.792 37.058C181.792 37.7513 181.48 38.098 180.856 38.098H172.822C172.995 40.7847 174.286 42.128 176.696 42.128C177.337 42.128 177.892 42.0413 178.36 41.868C178.828 41.6947 179.322 41.4693 179.842 41.192C179.894 41.1573 180.032 41.088 180.258 40.984C180.5 40.8627 180.7 40.802 180.856 40.802ZM176.332 32.924C175.326 32.924 174.52 33.2447 173.914 33.886C173.307 34.5273 172.943 35.4287 172.822 36.59H179.53C179.478 35.4113 179.174 34.51 178.62 33.886C178.082 33.2447 177.32 32.924 176.332 32.924ZM191.341 31.052C192.173 31 192.589 31.3553 192.589 32.118C192.589 32.4993 192.494 32.7853 192.303 32.976C192.113 33.1667 191.783 33.2793 191.315 33.314L190.535 33.392C189.443 33.496 188.629 33.8773 188.091 34.536C187.571 35.1947 187.311 35.992 187.311 36.928V42.882C187.311 43.298 187.19 43.61 186.947 43.818C186.705 44.026 186.393 44.13 186.011 44.13C185.63 44.13 185.309 44.026 185.049 43.818C184.807 43.61 184.685 43.298 184.685 42.882V32.3C184.685 31.9013 184.807 31.598 185.049 31.39C185.309 31.1647 185.63 31.052 186.011 31.052C186.358 31.052 186.644 31.1647 186.869 31.39C187.112 31.598 187.233 31.8927 187.233 32.274V33.522C187.58 32.7593 188.083 32.1787 188.741 31.78C189.4 31.3813 190.145 31.1473 190.977 31.078L191.341 31.052Z" fill="black"/>
</svg>
